<?xml version="1.0" encoding="UTF-8" standalone="no"?>
<svg
   width="1054.2948"
   height="1054.2948"
   viewBox="0 0 278.94882 278.94884"
   version="1.1"
   id="svg8"
   inkscape:version="1.1 (c68e22c387, 2021-05-23)"
   sodipodi:docname="logo.svg"
   inkscape:export-filename="X:\Misc\nico\logo192.png"
   inkscape:export-xdpi="17.482777"
   inkscape:export-ydpi="17.482777"
   xmlns:inkscape="http://www.inkscape.org/namespaces/inkscape"
   xmlns:sodipodi="http://sodipodi.sourceforge.net/DTD/sodipodi-0.dtd"
   xmlns:xlink="http://www.w3.org/1999/xlink"
   xmlns="http://www.w3.org/2000/svg"
   xmlns:svg="http://www.w3.org/2000/svg"
   xmlns:rdf="http://www.w3.org/1999/02/22-rdf-syntax-ns#"
   xmlns:cc="http://creativecommons.org/ns#"
   xmlns:dc="http://purl.org/dc/elements/1.1/">
  <defs
     id="defs2">
    <linearGradient
       inkscape:collect="always"
       id="linearGradient4757">
      <stop
         style="stop-color:#999999;stop-opacity:1"
         offset="0"
         id="stop4753" />
      <stop
         style="stop-color:#000000;stop-opacity:1"
         offset="1"
         id="stop4755" />
    </linearGradient>
    <linearGradient
       id="linearGradient4709"
       inkscape:swatch="solid">
      <stop
         style="stop-color:#3737c8;stop-opacity:1;"
         offset="0"
         id="stop4707" />
    </linearGradient>
    <inkscape:perspective
       sodipodi:type="inkscape:persp3d"
       inkscape:vp_x="0 : 136.07383 : 1"
       inkscape:vp_y="0 : 999.99999 : 0"
       inkscape:vp_z="507.99998 : 136.07383 : 1"
       inkscape:persp3d-origin="253.99999 : 88.448835 : 1"
       id="perspective3741" />
    <radialGradient
       inkscape:collect="always"
       xlink:href="#linearGradient4757"
       id="radialGradient4771"
       cx="223.98128"
       cy="256.81299"
       fx="223.98128"
       fy="256.81299"
       r="10.245021"
       gradientUnits="userSpaceOnUse" />
    <radialGradient
       inkscape:collect="always"
       xlink:href="#linearGradient4757"
       id="radialGradient4779"
       cx="197.8031"
       cy="250.01131"
       fx="197.8031"
       fy="250.01131"
       r="6.7817283"
       gradientUnits="userSpaceOnUse" />
    <radialGradient
       inkscape:collect="always"
       xlink:href="#linearGradient4757"
       id="radialGradient4787"
       cx="176.82304"
       cy="240.12265"
       fx="176.82304"
       fy="240.12265"
       r="4.8040009"
       gradientUnits="userSpaceOnUse" />
  </defs>
  <sodipodi:namedview
     id="base"
     pagecolor="#ffffff"
     bordercolor="#666666"
     borderopacity="1.0"
     inkscape:pageopacity="0.0"
     inkscape:pageshadow="2"
     inkscape:zoom="1.4142136"
     inkscape:cx="176.06959"
     inkscape:cy="655.13443"
     inkscape:document-units="mm"
     inkscape:current-layer="layer6"
     showgrid="true"
     units="px"
     inkscape:snap-page="false"
     inkscape:snap-bbox="true"
     inkscape:window-width="3722"
     inkscape:window-height="2131"
     inkscape:window-x="-9"
     inkscape:window-y="-9"
     inkscape:window-maximized="1"
     inkscape:document-rotation="0"
     inkscape:pagecheckerboard="0">
    <inkscape:grid
       type="xygrid"
       id="grid3707"
       originx="-114.261"
       originy="-3.4005938" />
    <sodipodi:guide
       position="-114.261,282.34942"
       orientation="540.00002,0"
       id="guide3709"
       inkscape:locked="false" />
    <sodipodi:guide
       position="-114.261,139.47442"
       orientation="0,960"
       id="guide3711"
       inkscape:locked="false" />
    <sodipodi:guide
       position="139.739,139.47442"
       orientation="-540.00002,0"
       id="guide3713"
       inkscape:locked="false" />
    <sodipodi:guide
       position="139.739,282.34942"
       orientation="0,-960"
       id="guide3715"
       inkscape:locked="false" />
  </sodipodi:namedview>
  <metadata
     id="metadata5">
    <rdf:RDF>
      <cc:Work
         rdf:about="">
        <dc:format>image/svg+xml</dc:format>
        <dc:type
           rdf:resource="http://purl.org/dc/dcmitype/StillImage" />
        <dc:title />
      </cc:Work>
    </rdf:RDF>
  </metadata>
  <g
     inkscape:groupmode="layer"
     id="layer2"
     inkscape:label="レイヤー 2"
     transform="translate(-114.261,-3.4005937)" />
  <g
     inkscape:label="レイヤー 1"
     inkscape:groupmode="layer"
     id="layer1"
     transform="translate(-114.261,-14.650574)">
    <circle
       style="fill:#01000d;fill-opacity:1;stroke-width:0.264583"
       id="path3701"
       cx="253.73541"
       cy="154.12498"
       r="139.47441" />
    <ellipse
       style="fill:#ffffff;fill-opacity:1;stroke-width:0.264583"
       id="path3846"
       cx="195.11124"
       cy="188.03702"
       rx="7.9375"
       ry="9.260417"
       transform="rotate(-23.329658)" />
    <ellipse
       style="fill:#ffffff;fill-opacity:1;stroke-width:0.264583"
       id="path3848"
       cx="266.10663"
       cy="92.575638"
       rx="7.9375"
       ry="13.229166" />
    <ellipse
       style="fill:#ffffff;fill-opacity:1;stroke-width:0.264583"
       id="path3850"
       cx="295.44467"
       cy="17.844717"
       rx="7.9375"
       ry="10.583333"
       transform="rotate(16.038422)" />
  </g>
  <g
     inkscape:groupmode="layer"
     id="layer3"
     inkscape:label="レイヤー 3"
     transform="translate(-114.261,-3.4005937)">
    <path
       style="fill:#ffffff;fill-opacity:1"
       d="M 959,46.853516 A 493.14738,493.14738 0 0 0 941.0625,47.488281 441.99999,441.99999 0 0 1 1304,482 441.99999,441.99999 0 0 1 862,924 441.99999,441.99999 0 0 1 517.05273,758.21289 493.14738,493.14738 0 0 0 959,1033.1465 493.14738,493.14738 0 0 0 1452.1465,540 493.14738,493.14738 0 0 0 959,46.853516 Z"
       id="path3701-1"
       transform="scale(0.26458333)" />
    <path
       style="fill:#f2f2f2;fill-opacity:1;stroke-width:1.41421"
       d="m 921.98895,1031.8679 c -2.72236,-0.3099 -10.99551,-1.2342 -18.38477,-2.054 -58.50685,-6.4912 -116.41188,-24.1806 -170.39089,-52.05269 -81.9559,-42.31804 -148.64128,-104.69988 -196.44505,-183.76744 -7.5869,-12.54877 -15.00172,-26.27251 -15.00172,-27.76598 0,-0.38493 11.61422,10.94375 25.80939,25.17486 14.19517,14.2311 31.21877,30.17401 37.83022,35.42868 44.96882,35.74044 104.30714,66.06008 158.18414,80.82612 43.52836,11.92981 71.58039,15.4808 121.12303,15.33251 31.98431,-0.0957 41.51311,-0.62528 58.68987,-3.2616 65.19706,-10.00652 119.09423,-29.69201 173.58633,-63.40102 l 10.2447,-6.33739 -2.7639,-3.51363 c -5.3226,-6.76668 -24.9232,-23.32592 -38.9387,-32.89682 -21.8511,-14.92171 -32.7746,-27.50961 -44.9719,-51.82442 -14.8329,-29.56857 -26.05224,-71.83319 -32.80555,-123.5821 -2.11115,-16.17733 -6.25072,-62.3902 -6.40025,-71.45054 -0.0612,-3.70599 -0.39729,-3.3339 -2.65746,2.9418 -6.46981,17.96453 -15.44392,22.77556 -29.65307,15.89702 -8.11086,-3.92639 -26.00576,-20.86096 -29.29863,-27.72632 -3.29854,-6.87715 -3.27775,-24.66383 0.0433,-37.07444 3.09028,-11.54814 11.5384,-29.35852 19.6967,-41.52469 l 6.26953,-9.34951 -9.40778,-2.7263 c -29.14338,-8.44552 -71.4151,-13.91232 -128.2017,-16.57971 l -21.2132,-0.99642 9.89949,-1.72287 c 27.2504,-4.74255 56.36382,-19.61213 78.95866,-40.32785 5.3142,-4.87224 15.88663,-16.86836 23.4943,-26.65804 13.26244,-17.06635 21.25909,-25.47938 33.12519,-34.85 l 5.47051,-4.32003 -4.50468,-7.98186 c -10.31836,-18.28314 -5.42381,-39.20419 11.17231,-47.7545 7.60205,-3.91658 22.40722,-1.3736 29.85087,5.12727 1.94538,1.69898 2.56901,0.79416 5.3026,-7.69335 4.88698,-15.17355 15.4445,-25.68586 25.79626,-25.68586 13.7117,0 26.4781,16.26088 28.9859,36.92001 l 0.9624,7.92862 6.9764,-4.69475 c 11.9735,-8.0576 22.7838,-8.10258 31.8612,-0.13266 2.8355,2.48956 6.3928,7.32366 7.9051,10.74248 3.6327,8.21217 3.6676,23.73721 0.075,33.31353 l -2.6271,7.00266 10.7586,10.67501 c 12.3246,12.2287 20.6097,24.20203 46.688,67.47124 30.4407,50.50742 46.5388,72.84718 67.7129,93.96693 25.3732,25.30822 52.6154,41.05182 81.5179,47.11029 l 8.8855,1.86257 0.7655,-3.70149 c 8.106,-39.1981 9.9792,-100.3516 4.3318,-141.41629 -17.5763,-127.80535 -87.169,-239.05885 -194.581,-311.06441 -40.6238,-27.232952 -85.3135,-46.852895 -137.76428,-60.482145 l -24.04163,-6.247178 28.28427,0.665062 c 39.75494,0.934778 68.70804,4.688481 105.35884,13.659572 160.5098,39.288209 292.7368,159.903619 347.1108,316.629099 55.655,160.41769 25.3809,336.82361 -80.6985,470.22601 -15.3704,19.32937 -55.9308,60.08065 -74.7863,75.13822 -72.7353,58.08484 -155.0456,93.32574 -247.4874,105.96094 -16.0638,2.1956 -87.03847,4.0592 -99.70202,2.6178 z m -58.04351,-28.5143 c 33.74428,-17.10153 21.67831,-69.4709 -16.03862,-69.61169 -11.45187,-0.0427 -18.31876,2.32295 -25.76273,8.87538 -14.87774,13.09592 -17.37658,32.60765 -6.29588,49.16 10.65252,15.91271 30.23887,20.62691 48.09723,11.57631 z M 756.19853,968.29159 c 14.63694,-6.1157 20.59399,-22.27941 13.11514,-35.58624 -11.98078,-21.31692 -44.40286,-14.29563 -46.42204,10.05311 -0.99343,11.97958 5.1669,21.7322 16.2166,25.67302 7.10501,2.53396 10.76253,2.50402 17.0903,-0.13986 z M 676.04856,923.0356 c 5.25114,-2.71548 9.75615,-9.86707 9.75615,-15.48769 0,-8.95646 -8.92701,-17.67767 -18.09483,-17.67767 -5.97238,0 -13.27482,5.51788 -15.6858,11.85254 -5.52511,14.51671 10.19631,28.46365 24.02448,21.31282 z"
       id="path3854"
       inkscape:connector-curvature="0"
       transform="scale(0.26458333)" />
    <path
       style="fill:#d4aa00;fill-opacity:1;stroke-width:1.41421"
       d="m 1148.3067,924.94353 c -2.8679,-11.4893 -11.5974,-32.19299 -18.2198,-43.21161 -7.7895,-12.96056 -19.515,-28.53101 -22.2865,-29.59453 -1.0711,-0.41101 -1.652,-1.22527 -1.291,-1.80947 1.6784,-2.71564 -26.0894,-26.59492 -48.5155,-41.72159 -3.368,-2.27172 -10.3684,-8.69091 -15.5564,-14.26486 -31.8087,-34.17475 -51.10708,-99.52466 -59.18231,-200.40794 -2.22603,-27.80973 -2.6222,-30.2412 -4.1076,-25.21046 -3.66296,12.40565 -11.15914,19.91968 -19.87236,19.91968 -6.48926,0 -16.0875,-5.67866 -26.80377,-15.85806 -13.08058,-12.42528 -15.26197,-16.94996 -15.19516,-31.51809 0.0868,-18.92382 7.85045,-40.61924 22.1852,-61.9961 l 6.24627,-9.31483 -7.93706,-2.30738 c -29.14157,-8.47167 -72.3527,-14.11377 -130.33306,-17.01764 l -20.50609,-1.02701 9.72205,-1.84154 c 13.41706,-2.54143 26.42144,-6.98163 39.77542,-13.58086 24.81304,-12.26205 40.32507,-25.39367 62.27484,-52.71843 27.14279,-33.78944 43.03503,-46.20215 69.9898,-54.66586 9.21142,-2.89236 13.29913,-3.30667 31.78413,-3.22147 18.8359,0.0868 22.6078,0.52423 33.6574,3.90313 25.425,7.77479 44.8885,19.22824 59.5064,35.01692 10.5556,11.40104 20.8513,26.5681 43.5936,64.21977 22.4511,37.16969 28.0443,45.7571 41.5357,63.77095 22.9631,30.66047 48.6333,53.21466 74.8511,65.76521 20.3498,9.7415 41.6543,15.26349 41.7623,10.82453 0.024,-0.97227 0.7142,-0.61389 1.5345,0.7964 1.349,2.31927 3.5346,2.53587 22.8829,2.26784 l 21.3915,-0.29634 5.983,13.99562 c 16.115,37.69665 22.309,80.74236 16.9002,117.44826 -2.6724,18.13537 -5.5991,27.45911 -13.1407,41.863 -22.6175,43.19792 -100.0939,116.44472 -191.6387,181.17681 l -9.4721,6.69786 z"
       id="path3856"
       inkscape:connector-curvature="0"
       transform="scale(0.26458333)" />
    <path
       style="fill:#d4aa00;fill-opacity:1;stroke-width:1.41421"
       d="m 1148.3067,924.94353 c -2.8679,-11.4893 -11.5974,-32.19299 -18.2198,-43.21161 -7.7895,-12.96056 -19.515,-28.53101 -22.2865,-29.59453 -1.0711,-0.41101 -1.6362,-1.25087 -1.2558,-1.86635 1.2025,-1.94569 -22.193,-22.87517 -38.9945,-34.88428 -30.9009,-22.08676 -44.0106,-40.08739 -58.695,-80.5922 -12.8653,-35.48731 -23.32215,-96.00221 -26.94752,-155.94841 -0.94268,-15.58764 -1.03807,-15.95484 -2.69064,-10.35794 -5.20975,17.64432 -15.78735,23.81881 -29.85863,17.42945 -7.52994,-3.41912 -26.33932,-21.25617 -29.61358,-28.08272 -3.28446,-6.8478 -3.28114,-24.60258 0.007,-37.07444 2.99503,-11.36038 11.44608,-29.16656 19.64776,-41.3974 l 6.1913,-9.23285 -10.03311,-2.92268 C 907.51076,459.03742 869.1782,454.18146 804.60923,450.61905 l -17.67767,-0.97532 9.19239,-1.89491 c 15.08193,-3.10897 26.83761,-7.11702 40.30508,-13.74185 24.44912,-12.02686 41.65738,-26.59123 62.08533,-52.54651 14.37347,-18.26259 20.44839,-24.64666 33.2043,-34.894 12.11848,-9.73527 22.2234,-15.1372 36.98918,-19.77382 9.19531,-2.88742 13.29251,-3.30232 31.76996,-3.21716 18.8359,0.0868 22.6078,0.52423 33.6574,3.90313 25.2085,7.70859 44.4959,19.00138 59.3541,34.75185 10.4225,11.04836 20.2847,25.59361 44.2028,65.19194 26.5123,43.89326 41.4833,65.39273 58.2845,83.70067 25.1106,27.3625 48.726,43.6918 76.0302,52.57251 16.0109,5.20753 28.303,6.78288 50.1425,6.42619 l 19.0298,-0.31079 5.99,14.01207 c 16.1224,37.71374 22.3171,80.75221 16.9073,117.46472 -2.6724,18.13537 -5.5991,27.45911 -13.1407,41.863 -22.6175,43.19792 -100.0939,116.44472 -191.6387,181.17681 l -9.4721,6.69786 z"
       id="path3858"
       inkscape:connector-curvature="0"
       transform="scale(0.26458333)" />
    <path
       style="fill:#d4aa00;fill-opacity:1;stroke-width:1.41421"
       d="m 1148.3067,924.94353 c -2.8679,-11.4893 -11.5974,-32.19299 -18.2198,-43.21161 -7.7895,-12.96056 -19.515,-28.53101 -22.2865,-29.59453 -1.0711,-0.41101 -1.6316,-1.25838 -1.2455,-1.88302 1.0997,-1.77934 -22.0341,-22.71475 -35.7221,-32.32751 -24.6258,-17.29408 -32.7533,-25.55553 -44.8203,-45.55919 -22.2849,-36.94183 -37.71554,-102.35193 -43.43806,-184.13252 -1.6071,-22.9669 -1.90437,-24.66844 -3.41555,-19.55035 -5.14932,17.43966 -15.79173,23.59388 -29.80058,17.23286 -7.52994,-3.41912 -26.33932,-21.25617 -29.61358,-28.08272 -3.28446,-6.8478 -3.28114,-24.60258 0.007,-37.07444 2.99827,-11.37267 11.44822,-29.16974 19.67339,-41.43562 l 6.21693,-9.27108 -11.22261,-3.02818 C 902.82265,458.49991 873.07787,454.79913 802.48791,450.611 l -15.55635,-0.92296 14.56956,-3.28916 c 37.35707,-8.43357 69.17801,-29.72333 96.74204,-64.72517 18.95748,-24.07293 35.56283,-39.27677 51.91011,-47.52885 16.6855,-8.42281 27.13934,-10.66813 49.61743,-10.65703 17.0595,0.008 22.3638,0.5468 31.5591,3.20313 33.5679,9.69712 56.431,25.21857 74.7488,50.74594 4.3786,6.10205 18.2813,27.95913 30.8947,48.57129 35.784,58.47608 47.5758,74.54011 71.7443,97.73757 22.4665,21.56389 42.5594,33.68541 69.2514,41.77745 11.0993,3.3649 15.1343,3.81439 37.8784,4.21962 l 25.4559,0.45355 5.9279,13.81937 c 16.0398,37.39215 22.2476,80.60967 16.8452,117.27202 -2.6724,18.13537 -5.5991,27.45911 -13.1407,41.863 -22.6175,43.19792 -100.0939,116.44472 -191.6387,181.17681 l -9.4721,6.69786 z"
       id="path3860"
       inkscape:connector-curvature="0"
       transform="scale(0.26458333)" />
    <path
       style="fill:#d4aa00;fill-opacity:1;stroke-width:1.41421"
       d="m 1148.3001,924.94353 c -4.3612,-17.39569 -15.0999,-40.08959 -26.5967,-56.20625 -15.5651,-21.81978 -32.5092,-38.1598 -57.8193,-55.75806 -26.5485,-18.45936 -41.8824,-40.3547 -55.5916,-79.37958 -12.66658,-36.05679 -23.29147,-97.64054 -26.33683,-152.65287 -0.96209,-17.37924 -1.09995,-18.00881 -2.73262,-12.47926 -5.21611,17.66589 -15.78692,23.84248 -29.86474,17.45015 -7.52994,-3.41912 -26.33932,-21.25617 -29.61358,-28.08272 -3.28446,-6.8478 -3.28114,-24.60258 0.007,-37.07444 2.99827,-11.37267 11.44822,-29.16974 19.67339,-41.43562 l 6.21693,-9.27108 -10.76585,-2.89027 c -25.92435,-6.95983 -57.98784,-11.62846 -97.73999,-14.23152 -12.83399,-0.8404 -29.38029,-1.92286 -36.76955,-2.40547 l -13.43503,-0.87748 11.31371,-2.50316 c 41.23939,-9.12419 71.55196,-29.30745 101.83669,-67.80676 23.41573,-29.7671 42.41486,-44.31646 68.61171,-52.54219 9.21142,-2.89236 13.29913,-3.30667 31.78416,-3.22147 18.8359,0.0868 22.6078,0.52423 33.6574,3.90313 14.9605,4.57482 30.032,11.56427 41.6149,19.29908 17.7294,11.83922 30.7191,28.7163 62.6135,81.35182 31.719,52.34583 48.1807,74.59229 71.5892,96.74607 22.2153,21.02456 41.702,32.67011 68.0162,40.64763 11.0993,3.3649 15.1343,3.81439 37.8784,4.21962 l 25.4559,0.45355 5.9279,13.81937 c 16.0398,37.39215 22.2476,80.60967 16.8452,117.27202 -2.6724,18.13537 -5.5991,27.45911 -13.1407,41.863 -22.6175,43.19792 -100.0939,116.44472 -191.6387,181.17681 l -9.4721,6.69786 z"
       id="path3862"
       inkscape:connector-curvature="0"
       transform="scale(0.26458333)" />
    <path
       style="fill:#d4aa00;fill-opacity:1;stroke-width:1.41421"
       d="m 1148.3067,924.94353 c -2.9896,-11.97694 -11.7509,-32.47617 -18.9157,-44.25804 -15.8902,-26.12993 -36.0338,-47.08675 -64.0536,-66.63956 -7.1072,-4.95953 -16.4854,-12.58059 -20.8405,-16.93569 -26.6853,-26.6852 -45.2258,-76.38153 -55.87861,-149.77763 -3.18529,-21.94617 -7.18041,-63.68563 -7.32698,-76.54944 l -0.0946,-8.30337 -1.84654,5.9055 c -5.59963,17.90844 -15.90129,23.93049 -29.99186,17.53236 -7.52994,-3.41912 -26.33932,-21.25617 -29.61358,-28.08272 -3.28446,-6.8478 -3.28115,-24.60258 0.007,-37.07444 2.99827,-11.37267 11.44822,-29.16974 19.67338,-41.43562 l 6.21694,-9.27108 -11.0869,-2.99156 c -25.13268,-6.78153 -58.50835,-11.59579 -98.12604,-14.15416 -12.44508,-0.80366 -28.67318,-1.86571 -36.06244,-2.36011 l -13.43503,-0.89891 11.31371,-2.50316 c 41.14635,-9.10361 69.46331,-27.90982 101.17816,-67.1957 22.07408,-27.34364 38.80788,-41.33073 59.39604,-49.64665 29.03095,-11.72612 65.59795,-9.55306 97.94315,5.82044 31.0134,14.74047 42.7796,27.83631 79.4875,88.46999 30.0637,49.65878 44.6966,70.37029 64.1884,90.85281 37.3435,39.24163 72.4511,55.18288 120.3014,54.62507 l 20.4488,-0.23838 5.9853,14.00083 c 16.1173,37.70204 22.3115,80.74547 16.9024,117.45346 -2.6724,18.13537 -5.5991,27.45911 -13.1407,41.863 -22.6175,43.19792 -100.0939,116.44472 -191.6387,181.17681 l -9.4721,6.69786 z"
       id="path3864"
       inkscape:connector-curvature="0"
       transform="scale(0.26458333)" />
    <path
       style="fill:#d4aa00;fill-opacity:1;stroke-width:1.41421"
       d="m 1148.3067,924.94353 c -2.9896,-11.97694 -11.7509,-32.47617 -18.9157,-44.25804 -15.997,-26.30568 -33.8579,-44.92688 -63.1306,-65.81825 -17.4457,-12.45064 -27.3094,-22.10664 -36.1197,-35.35915 -23.7475,-35.72135 -40.27142,-99.68676 -47.29617,-183.08717 -0.78619,-9.33381 -1.47856,-20.78893 -1.53863,-25.45584 l -0.10917,-8.48528 -1.84654,5.9055 c -5.59964,17.90844 -15.90129,23.93049 -29.99186,17.53236 -7.52994,-3.41912 -26.33932,-21.25617 -29.61358,-28.08272 -3.28446,-6.8478 -3.28115,-24.60258 0.007,-37.07444 2.99353,-11.35469 11.44509,-29.16509 19.63593,-41.37976 l 6.17948,-9.21522 -10.7284,-2.89771 c -25.96395,-7.01277 -51.9394,-10.86084 -92.7528,-13.74062 -17.11199,-1.20742 -36.52207,-2.5776 -43.13352,-3.04485 l -12.02081,-0.84955 10.6066,-2.38162 c 42.16902,-9.4687 70.08413,-27.9082 101.88527,-67.30097 22.07408,-27.34364 38.80788,-41.33073 59.39604,-49.64665 29.03095,-11.72612 65.59796,-9.55306 97.94316,5.82044 31.1891,14.82402 42.226,27.1081 79.4878,88.46999 32.0381,52.75975 50.5639,78.19707 71.5879,98.29529 15.6272,14.93915 28.8589,24.66459 43.2759,31.80851 24.4487,12.11483 41.3604,15.81942 70.3305,15.40626 l 19.7393,-0.28152 5.9876,14.0063 c 16.1198,37.70775 22.3142,80.74875 16.9048,117.45895 -2.6724,18.13537 -5.5991,27.45911 -13.1407,41.863 -22.6175,43.19792 -100.0939,116.44472 -191.6387,181.17681 l -9.4721,6.69786 z"
       id="path3866"
       inkscape:connector-curvature="0"
       transform="scale(0.26458333)" />
  </g>
  <g
     inkscape:groupmode="layer"
     id="layer4"
     inkscape:label="Icon"
     transform="translate(-114.261,-3.4005937)">
    <circle
       style="fill:#aa0000;fill-opacity:1;stroke:url(#radialGradient4787);stroke-width:0.38432"
       id="path3812"
       cx="176.82304"
       cy="240.12265"
       r="4.8040009" />
    <circle
       style="fill:#44aa00;fill-opacity:1;stroke:url(#radialGradient4779);stroke-width:0.387527"
       id="path3814"
       cx="197.8031"
       cy="250.01131"
       r="6.7817283" />
    <circle
       style="fill:#e6da00;fill-opacity:1;stroke:url(#radialGradient4771);stroke-width:0.445436"
       id="path3816"
       cx="223.98128"
       cy="256.81299"
       r="10.022304" />
  </g>
  <g
     inkscape:groupmode="layer"
     id="layer5"
     inkscape:label="Chicken"
     transform="translate(-114.261,-3.4005937)">
    <path
       style="fill:#f2f2f2;fill-opacity:1;stroke:#ffcc00;stroke-width:0.264583px;stroke-linecap:butt;stroke-linejoin:miter;stroke-opacity:1"
       d="m 252.27526,121.47258 c -14.22293,17.57101 -8.85859,26.69409 -8.85859,26.69409 0,0 15.69163,21.46664 17.3065,-7.10682 1.61485,-28.57348 -8.44791,-19.58727 -8.44791,-19.58727 z"
       id="path3842"
       inkscape:connector-curvature="0" />
  </g>
  <g
     inkscape:groupmode="layer"
     id="layer6"
     inkscape:label="parts"
     transform="translate(-114.261,-3.4005937)">
    <path
       style="opacity:1;fill:#f2f2f2;fill-opacity:1;stroke:#f2f2f2;stroke-width:0.79375;stroke-miterlimit:4;stroke-dasharray:none;stroke-opacity:1"
       d="M 355.86458,149.48958 C 313.53125,154.78124 301.625,103.1875 285.75,92.604166 269.875,82.020832 251.35416,82.020832 238.125,100.54167 c -13.22917,18.52083 -31.75,18.52083 -31.75,18.52083 v 0 c 0,0 52.91666,0 52.91666,13.22916 0,13.22917 0,68.79167 21.16667,82.02084 21.16667,13.22916 23.8125,34.39583 23.8125,34.39583 0,0 50.27083,-37.04167 55.5625,-58.20833 5.29167,-21.16667 -4.68407,-50.31754 -3.96875,-41.01042 z"
       id="path3833"
       inkscape:connector-curvature="0"
       sodipodi:nodetypes="cssccsscsc" />
  </g>
</svg>
